<mxfile host="app.diagrams.net" agent="Mozilla/5.0 (Windows NT 10.0; Win64; x64; rv:131.0) Gecko/20100101 Firefox/131.0" version="24.8.3">
  <diagram name="Page-1" id="s8xztOO7BumkGDskIjR9">
    <mxGraphModel dx="2336" dy="814" grid="1" gridSize="10" guides="1" tooltips="1" connect="1" arrows="1" fold="1" page="1" pageScale="1" pageWidth="827" pageHeight="1169" math="0" shadow="0">
      <root>
        <mxCell id="0" />
        <mxCell id="1" parent="0" />
        <mxCell id="Zk--edvFrF1T-wHGm7JD-1" value="USUARIO" style="rounded=0;whiteSpace=wrap;html=1;" vertex="1" parent="1">
          <mxGeometry x="-90" y="295" width="120" height="60" as="geometry" />
        </mxCell>
        <mxCell id="Zk--edvFrF1T-wHGm7JD-2" value="AFICIONADO" style="whiteSpace=wrap;html=1;" vertex="1" parent="1">
          <mxGeometry x="160" y="255" width="120" height="60" as="geometry" />
        </mxCell>
        <mxCell id="Zk--edvFrF1T-wHGm7JD-3" value="DOCUMENTALISTA" style="whiteSpace=wrap;html=1;" vertex="1" parent="1">
          <mxGeometry x="160" y="335" width="120" height="60" as="geometry" />
        </mxCell>
        <mxCell id="Zk--edvFrF1T-wHGm7JD-4" value="ALQAFI" style="whiteSpace=wrap;html=1;" vertex="1" parent="1">
          <mxGeometry x="470" y="255" width="120" height="60" as="geometry" />
        </mxCell>
        <mxCell id="Zk--edvFrF1T-wHGm7JD-5" value="ALQUILER" style="whiteSpace=wrap;html=1;" vertex="1" parent="1">
          <mxGeometry x="760" y="295" width="120" height="60" as="geometry" />
        </mxCell>
        <mxCell id="Zk--edvFrF1T-wHGm7JD-6" value="MUSEO" style="whiteSpace=wrap;html=1;" vertex="1" parent="1">
          <mxGeometry x="210" y="455" width="120" height="60" as="geometry" />
        </mxCell>
        <mxCell id="Zk--edvFrF1T-wHGm7JD-7" value="ALQDOCU" style="shape=ext;margin=3;double=1;whiteSpace=wrap;html=1;align=center;" vertex="1" parent="1">
          <mxGeometry x="470" y="335" width="120" height="60" as="geometry" />
        </mxCell>
        <mxCell id="Zk--edvFrF1T-wHGm7JD-8" value="" style="triangle;whiteSpace=wrap;html=1;" vertex="1" parent="1">
          <mxGeometry x="50" y="285" width="60" height="80" as="geometry" />
        </mxCell>
        <mxCell id="Zk--edvFrF1T-wHGm7JD-9" value="" style="ellipse;whiteSpace=wrap;html=1;aspect=fixed;" vertex="1" parent="1">
          <mxGeometry x="30" y="315" width="20" height="20" as="geometry" />
        </mxCell>
        <mxCell id="Zk--edvFrF1T-wHGm7JD-10" value="Alquila I" style="shape=rhombus;perimeter=rhombusPerimeter;whiteSpace=wrap;html=1;align=center;" vertex="1" parent="1">
          <mxGeometry x="315" y="255" width="120" height="60" as="geometry" />
        </mxCell>
        <mxCell id="Zk--edvFrF1T-wHGm7JD-11" value="Alquila II" style="shape=rhombus;perimeter=rhombusPerimeter;whiteSpace=wrap;html=1;align=center;" vertex="1" parent="1">
          <mxGeometry x="315" y="335" width="120" height="60" as="geometry" />
        </mxCell>
        <mxCell id="Zk--edvFrF1T-wHGm7JD-12" value="" style="endArrow=none;html=1;rounded=0;exitX=1;exitY=0.5;exitDx=0;exitDy=0;entryX=0;entryY=0.5;entryDx=0;entryDy=0;" edge="1" parent="1" source="Zk--edvFrF1T-wHGm7JD-8" target="Zk--edvFrF1T-wHGm7JD-2">
          <mxGeometry relative="1" as="geometry">
            <mxPoint x="230" y="575" as="sourcePoint" />
            <mxPoint x="390" y="575" as="targetPoint" />
          </mxGeometry>
        </mxCell>
        <mxCell id="Zk--edvFrF1T-wHGm7JD-13" value="" style="endArrow=none;html=1;rounded=0;exitX=1;exitY=0.5;exitDx=0;exitDy=0;entryX=0;entryY=0.5;entryDx=0;entryDy=0;" edge="1" parent="1" source="Zk--edvFrF1T-wHGm7JD-8" target="Zk--edvFrF1T-wHGm7JD-3">
          <mxGeometry relative="1" as="geometry">
            <mxPoint x="120" y="335" as="sourcePoint" />
            <mxPoint x="170" y="295" as="targetPoint" />
          </mxGeometry>
        </mxCell>
        <mxCell id="Zk--edvFrF1T-wHGm7JD-14" value="" style="endArrow=none;html=1;rounded=0;exitX=1;exitY=0.5;exitDx=0;exitDy=0;entryX=0;entryY=0.5;entryDx=0;entryDy=0;" edge="1" parent="1" source="Zk--edvFrF1T-wHGm7JD-3" target="Zk--edvFrF1T-wHGm7JD-11">
          <mxGeometry relative="1" as="geometry">
            <mxPoint x="120" y="335" as="sourcePoint" />
            <mxPoint x="170" y="375" as="targetPoint" />
          </mxGeometry>
        </mxCell>
        <mxCell id="Zk--edvFrF1T-wHGm7JD-15" value="" style="endArrow=none;html=1;rounded=0;exitX=1;exitY=0.5;exitDx=0;exitDy=0;entryX=0;entryY=0.5;entryDx=0;entryDy=0;" edge="1" parent="1" source="Zk--edvFrF1T-wHGm7JD-2" target="Zk--edvFrF1T-wHGm7JD-10">
          <mxGeometry relative="1" as="geometry">
            <mxPoint x="290" y="375" as="sourcePoint" />
            <mxPoint x="325" y="375" as="targetPoint" />
          </mxGeometry>
        </mxCell>
        <mxCell id="Zk--edvFrF1T-wHGm7JD-16" value="" style="endArrow=none;html=1;rounded=0;exitX=1;exitY=0.5;exitDx=0;exitDy=0;entryX=0;entryY=0.5;entryDx=0;entryDy=0;" edge="1" parent="1" source="Zk--edvFrF1T-wHGm7JD-10" target="Zk--edvFrF1T-wHGm7JD-4">
          <mxGeometry relative="1" as="geometry">
            <mxPoint x="300" y="385" as="sourcePoint" />
            <mxPoint x="335" y="385" as="targetPoint" />
          </mxGeometry>
        </mxCell>
        <mxCell id="Zk--edvFrF1T-wHGm7JD-17" value="(1,1)" style="text;html=1;align=center;verticalAlign=middle;resizable=0;points=[];autosize=1;strokeColor=none;fillColor=none;" vertex="1" parent="1">
          <mxGeometry x="280" y="255" width="50" height="30" as="geometry" />
        </mxCell>
        <mxCell id="Zk--edvFrF1T-wHGm7JD-18" value="(1,1)" style="text;html=1;align=center;verticalAlign=middle;resizable=0;points=[];autosize=1;strokeColor=none;fillColor=none;" vertex="1" parent="1">
          <mxGeometry x="280" y="335" width="50" height="30" as="geometry" />
        </mxCell>
        <mxCell id="Zk--edvFrF1T-wHGm7JD-19" value="" style="endArrow=none;html=1;rounded=0;exitX=0;exitY=0.5;exitDx=0;exitDy=0;entryX=1;entryY=0.5;entryDx=0;entryDy=0;" edge="1" parent="1" source="Zk--edvFrF1T-wHGm7JD-7" target="Zk--edvFrF1T-wHGm7JD-11">
          <mxGeometry width="50" height="50" relative="1" as="geometry">
            <mxPoint x="640" y="455" as="sourcePoint" />
            <mxPoint x="600" y="375" as="targetPoint" />
          </mxGeometry>
        </mxCell>
        <mxCell id="Zk--edvFrF1T-wHGm7JD-20" value="" style="triangle;whiteSpace=wrap;html=1;direction=west;" vertex="1" parent="1">
          <mxGeometry x="680" y="285" width="60" height="80" as="geometry" />
        </mxCell>
        <mxCell id="Zk--edvFrF1T-wHGm7JD-21" value="" style="ellipse;whiteSpace=wrap;html=1;aspect=fixed;" vertex="1" parent="1">
          <mxGeometry x="740" y="315" width="20" height="20" as="geometry" />
        </mxCell>
        <mxCell id="Zk--edvFrF1T-wHGm7JD-22" value="" style="endArrow=none;html=1;rounded=0;" edge="1" parent="1">
          <mxGeometry width="50" height="50" relative="1" as="geometry">
            <mxPoint x="690" y="385" as="sourcePoint" />
            <mxPoint x="690" y="275" as="targetPoint" />
            <Array as="points">
              <mxPoint x="650" y="325" />
            </Array>
          </mxGeometry>
        </mxCell>
        <mxCell id="Zk--edvFrF1T-wHGm7JD-23" value="&lt;div&gt;MATERIAL AUDIVISUAL&lt;br&gt;&lt;/div&gt;" style="whiteSpace=wrap;html=1;" vertex="1" parent="1">
          <mxGeometry x="-100" y="635" width="120" height="60" as="geometry" />
        </mxCell>
        <mxCell id="Zk--edvFrF1T-wHGm7JD-24" value="" style="triangle;whiteSpace=wrap;html=1;direction=west;rotation=-180;" vertex="1" parent="1">
          <mxGeometry x="40" y="625" width="60" height="80" as="geometry" />
        </mxCell>
        <mxCell id="Zk--edvFrF1T-wHGm7JD-25" value="" style="ellipse;whiteSpace=wrap;html=1;aspect=fixed;" vertex="1" parent="1">
          <mxGeometry x="20" y="655" width="20" height="20" as="geometry" />
        </mxCell>
        <mxCell id="Zk--edvFrF1T-wHGm7JD-26" value="" style="endArrow=none;html=1;rounded=0;" edge="1" parent="1">
          <mxGeometry width="50" height="50" relative="1" as="geometry">
            <mxPoint x="90" y="715" as="sourcePoint" />
            <mxPoint x="110" y="625" as="targetPoint" />
            <Array as="points">
              <mxPoint x="150" y="675" />
            </Array>
          </mxGeometry>
        </mxCell>
        <mxCell id="Zk--edvFrF1T-wHGm7JD-27" value="PELICULA" style="whiteSpace=wrap;html=1;" vertex="1" parent="1">
          <mxGeometry x="380" y="675" width="120" height="60" as="geometry" />
        </mxCell>
        <mxCell id="Zk--edvFrF1T-wHGm7JD-28" value="DOCUMENTAL" style="whiteSpace=wrap;html=1;" vertex="1" parent="1">
          <mxGeometry x="380" y="585" width="120" height="60" as="geometry" />
        </mxCell>
        <mxCell id="Zk--edvFrF1T-wHGm7JD-29" value="" style="endArrow=none;html=1;rounded=0;exitX=0;exitY=0.5;exitDx=0;exitDy=0;entryX=1;entryY=0.5;entryDx=0;entryDy=0;" edge="1" parent="1" source="Zk--edvFrF1T-wHGm7JD-28" target="Zk--edvFrF1T-wHGm7JD-24">
          <mxGeometry relative="1" as="geometry">
            <mxPoint x="-830" y="690" as="sourcePoint" />
            <mxPoint x="-780" y="730" as="targetPoint" />
          </mxGeometry>
        </mxCell>
        <mxCell id="Zk--edvFrF1T-wHGm7JD-30" value="" style="endArrow=none;html=1;rounded=0;exitX=0;exitY=0.5;exitDx=0;exitDy=0;entryX=1;entryY=0.5;entryDx=0;entryDy=0;" edge="1" parent="1" source="Zk--edvFrF1T-wHGm7JD-27" target="Zk--edvFrF1T-wHGm7JD-24">
          <mxGeometry relative="1" as="geometry">
            <mxPoint x="170" y="730" as="sourcePoint" />
            <mxPoint x="255" y="685" as="targetPoint" />
          </mxGeometry>
        </mxCell>
        <mxCell id="Zk--edvFrF1T-wHGm7JD-31" value="" style="endArrow=none;html=1;rounded=0;exitX=1;exitY=0.5;exitDx=0;exitDy=0;entryX=1;entryY=0.5;entryDx=0;entryDy=0;" edge="1" parent="1" source="Zk--edvFrF1T-wHGm7JD-20" target="Zk--edvFrF1T-wHGm7JD-7">
          <mxGeometry relative="1" as="geometry">
            <mxPoint x="120" y="335" as="sourcePoint" />
            <mxPoint x="170" y="375" as="targetPoint" />
          </mxGeometry>
        </mxCell>
        <mxCell id="Zk--edvFrF1T-wHGm7JD-32" value="" style="endArrow=none;html=1;rounded=0;exitX=1;exitY=0.5;exitDx=0;exitDy=0;entryX=1;entryY=0.5;entryDx=0;entryDy=0;" edge="1" parent="1" source="Zk--edvFrF1T-wHGm7JD-20" target="Zk--edvFrF1T-wHGm7JD-4">
          <mxGeometry relative="1" as="geometry">
            <mxPoint x="690" y="335" as="sourcePoint" />
            <mxPoint x="600" y="375" as="targetPoint" />
          </mxGeometry>
        </mxCell>
        <mxCell id="Zk--edvFrF1T-wHGm7JD-33" value="" style="triangle;whiteSpace=wrap;html=1;direction=west;" vertex="1" parent="1">
          <mxGeometry x="1020" y="555" width="60" height="80" as="geometry" />
        </mxCell>
        <mxCell id="Zk--edvFrF1T-wHGm7JD-34" value="" style="ellipse;whiteSpace=wrap;html=1;aspect=fixed;" vertex="1" parent="1">
          <mxGeometry x="1080" y="585" width="20" height="20" as="geometry" />
        </mxCell>
        <mxCell id="Zk--edvFrF1T-wHGm7JD-35" value="" style="endArrow=none;html=1;rounded=0;" edge="1" parent="1">
          <mxGeometry width="50" height="50" relative="1" as="geometry">
            <mxPoint x="1030" y="655" as="sourcePoint" />
            <mxPoint x="1030" y="545" as="targetPoint" />
            <Array as="points">
              <mxPoint x="990" y="595" />
            </Array>
          </mxGeometry>
        </mxCell>
        <mxCell id="Zk--edvFrF1T-wHGm7JD-36" value="" style="endArrow=none;html=1;rounded=0;exitX=0;exitY=0.5;exitDx=0;exitDy=0;entryX=1;entryY=0.5;entryDx=0;entryDy=0;" edge="1" parent="1" target="Zk--edvFrF1T-wHGm7JD-6">
          <mxGeometry width="50" height="50" relative="1" as="geometry">
            <mxPoint x="380" y="485" as="sourcePoint" />
            <mxPoint x="445" y="375" as="targetPoint" />
          </mxGeometry>
        </mxCell>
        <mxCell id="Zk--edvFrF1T-wHGm7JD-37" value="" style="endArrow=none;html=1;rounded=0;exitX=0.5;exitY=1;exitDx=0;exitDy=0;entryX=1;entryY=0.5;entryDx=0;entryDy=0;" edge="1" parent="1" source="Zk--edvFrF1T-wHGm7JD-7">
          <mxGeometry width="50" height="50" relative="1" as="geometry">
            <mxPoint x="390" y="495" as="sourcePoint" />
            <mxPoint x="500" y="485" as="targetPoint" />
          </mxGeometry>
        </mxCell>
        <mxCell id="Zk--edvFrF1T-wHGm7JD-38" value="(1,1)" style="text;html=1;align=center;verticalAlign=middle;resizable=0;points=[];autosize=1;strokeColor=none;fillColor=none;" vertex="1" parent="1">
          <mxGeometry x="330" y="455" width="50" height="30" as="geometry" />
        </mxCell>
        <mxCell id="Zk--edvFrF1T-wHGm7JD-39" value="E" style="text;html=1;align=center;verticalAlign=middle;resizable=0;points=[];autosize=1;strokeColor=none;fillColor=none;" vertex="1" parent="1">
          <mxGeometry x="425" y="425" width="30" height="30" as="geometry" />
        </mxCell>
        <mxCell id="Zk--edvFrF1T-wHGm7JD-40" value="LINEA" style="shape=ext;margin=3;double=1;whiteSpace=wrap;html=1;align=center;" vertex="1" parent="1">
          <mxGeometry x="1100" y="565" width="120" height="60" as="geometry" />
        </mxCell>
        <mxCell id="Zk--edvFrF1T-wHGm7JD-41" value="LINEA DE ALQDOCU" style="shape=ext;margin=3;double=1;whiteSpace=wrap;html=1;align=center;" vertex="1" parent="1">
          <mxGeometry x="830" y="515" width="120" height="60" as="geometry" />
        </mxCell>
        <mxCell id="Zk--edvFrF1T-wHGm7JD-42" value="LINEA DE ALQAFI" style="shape=ext;margin=3;double=1;whiteSpace=wrap;html=1;align=center;" vertex="1" parent="1">
          <mxGeometry x="830" y="645" width="120" height="60" as="geometry" />
        </mxCell>
        <mxCell id="Zk--edvFrF1T-wHGm7JD-43" value="Se asocia con" style="shape=rhombus;double=1;perimeter=rhombusPerimeter;whiteSpace=wrap;html=1;align=center;" vertex="1" parent="1">
          <mxGeometry x="380" y="455" width="120" height="60" as="geometry" />
        </mxCell>
        <mxCell id="Zk--edvFrF1T-wHGm7JD-44" value="Es alquilada I" style="shape=rhombus;double=1;perimeter=rhombusPerimeter;whiteSpace=wrap;html=1;align=center;" vertex="1" parent="1">
          <mxGeometry x="590" y="535" width="120" height="60" as="geometry" />
        </mxCell>
        <mxCell id="Zk--edvFrF1T-wHGm7JD-45" value="" style="endArrow=none;html=1;rounded=0;exitX=1;exitY=0.5;exitDx=0;exitDy=0;entryX=1;entryY=0.5;entryDx=0;entryDy=0;" edge="1" parent="1" source="Zk--edvFrF1T-wHGm7JD-33" target="Zk--edvFrF1T-wHGm7JD-41">
          <mxGeometry relative="1" as="geometry">
            <mxPoint x="690" y="335" as="sourcePoint" />
            <mxPoint x="600" y="375" as="targetPoint" />
          </mxGeometry>
        </mxCell>
        <mxCell id="Zk--edvFrF1T-wHGm7JD-46" value="" style="endArrow=none;html=1;rounded=0;exitX=1;exitY=0.5;exitDx=0;exitDy=0;entryX=1;entryY=0.5;entryDx=0;entryDy=0;" edge="1" parent="1" source="Zk--edvFrF1T-wHGm7JD-33" target="Zk--edvFrF1T-wHGm7JD-42">
          <mxGeometry relative="1" as="geometry">
            <mxPoint x="1030" y="605" as="sourcePoint" />
            <mxPoint x="960" y="555" as="targetPoint" />
          </mxGeometry>
        </mxCell>
        <mxCell id="Zk--edvFrF1T-wHGm7JD-47" value="ID" style="text;html=1;align=center;verticalAlign=middle;resizable=0;points=[];autosize=1;strokeColor=none;fillColor=none;" vertex="1" parent="1">
          <mxGeometry x="590" y="525" width="40" height="30" as="geometry" />
        </mxCell>
        <mxCell id="Zk--edvFrF1T-wHGm7JD-48" value="" style="endArrow=none;html=1;rounded=0;exitX=0.058;exitY=0.517;exitDx=0;exitDy=0;entryX=1;entryY=0.5;entryDx=0;entryDy=0;exitPerimeter=0;" edge="1" parent="1" source="Zk--edvFrF1T-wHGm7JD-44" target="Zk--edvFrF1T-wHGm7JD-28">
          <mxGeometry relative="1" as="geometry">
            <mxPoint x="1030" y="605" as="sourcePoint" />
            <mxPoint x="960" y="685" as="targetPoint" />
          </mxGeometry>
        </mxCell>
        <mxCell id="Zk--edvFrF1T-wHGm7JD-49" value="" style="endArrow=none;html=1;rounded=0;exitX=0;exitY=0.5;exitDx=0;exitDy=0;entryX=1;entryY=0.5;entryDx=0;entryDy=0;" edge="1" parent="1" source="Zk--edvFrF1T-wHGm7JD-41" target="Zk--edvFrF1T-wHGm7JD-44">
          <mxGeometry relative="1" as="geometry">
            <mxPoint x="1040" y="615" as="sourcePoint" />
            <mxPoint x="970" y="695" as="targetPoint" />
          </mxGeometry>
        </mxCell>
        <mxCell id="Zk--edvFrF1T-wHGm7JD-50" value="" style="endArrow=none;html=1;rounded=0;exitX=0.75;exitY=1;exitDx=0;exitDy=0;entryX=0.5;entryY=0;entryDx=0;entryDy=0;" edge="1" parent="1" source="Zk--edvFrF1T-wHGm7JD-7" target="Zk--edvFrF1T-wHGm7JD-44">
          <mxGeometry relative="1" as="geometry">
            <mxPoint x="840" y="555" as="sourcePoint" />
            <mxPoint x="720" y="575" as="targetPoint" />
          </mxGeometry>
        </mxCell>
        <mxCell id="Zk--edvFrF1T-wHGm7JD-51" value="(0,1)" style="text;html=1;align=center;verticalAlign=middle;resizable=0;points=[];autosize=1;strokeColor=none;fillColor=none;" vertex="1" parent="1">
          <mxGeometry x="495" y="563" width="50" height="30" as="geometry" />
        </mxCell>
        <mxCell id="Zk--edvFrF1T-wHGm7JD-52" value="(1,N)" style="text;html=1;align=center;verticalAlign=middle;resizable=0;points=[];autosize=1;strokeColor=none;fillColor=none;" vertex="1" parent="1">
          <mxGeometry x="620" y="453" width="50" height="30" as="geometry" />
        </mxCell>
        <mxCell id="Zk--edvFrF1T-wHGm7JD-53" value="(1,1)" style="text;html=1;align=center;verticalAlign=middle;resizable=0;points=[];autosize=1;strokeColor=none;fillColor=none;" vertex="1" parent="1">
          <mxGeometry x="740" y="525" width="50" height="30" as="geometry" />
        </mxCell>
        <mxCell id="Zk--edvFrF1T-wHGm7JD-54" value="Es alquilada II" style="shape=rhombus;double=1;perimeter=rhombusPerimeter;whiteSpace=wrap;html=1;align=center;" vertex="1" parent="1">
          <mxGeometry x="590" y="675" width="120" height="60" as="geometry" />
        </mxCell>
        <mxCell id="Zk--edvFrF1T-wHGm7JD-55" value="ID" style="text;html=1;align=center;verticalAlign=middle;resizable=0;points=[];autosize=1;strokeColor=none;fillColor=none;" vertex="1" parent="1">
          <mxGeometry x="590" y="655" width="40" height="30" as="geometry" />
        </mxCell>
        <mxCell id="Zk--edvFrF1T-wHGm7JD-56" value="(0,1)" style="text;html=1;align=center;verticalAlign=middle;resizable=0;points=[];autosize=1;strokeColor=none;fillColor=none;" vertex="1" parent="1">
          <mxGeometry x="505" y="665" width="50" height="30" as="geometry" />
        </mxCell>
        <mxCell id="Zk--edvFrF1T-wHGm7JD-57" value="&lt;div&gt;(1,1)&lt;/div&gt;" style="text;html=1;align=center;verticalAlign=middle;resizable=0;points=[];autosize=1;strokeColor=none;fillColor=none;" vertex="1" parent="1">
          <mxGeometry x="740" y="660" width="50" height="30" as="geometry" />
        </mxCell>
        <mxCell id="Zk--edvFrF1T-wHGm7JD-58" value="" style="endArrow=none;html=1;rounded=0;entryX=1;entryY=0.5;entryDx=0;entryDy=0;" edge="1" parent="1" source="Zk--edvFrF1T-wHGm7JD-54" target="Zk--edvFrF1T-wHGm7JD-27">
          <mxGeometry relative="1" as="geometry">
            <mxPoint x="607" y="576" as="sourcePoint" />
            <mxPoint x="510" y="625" as="targetPoint" />
          </mxGeometry>
        </mxCell>
        <mxCell id="Zk--edvFrF1T-wHGm7JD-59" value="" style="endArrow=none;html=1;rounded=0;exitX=0;exitY=0.5;exitDx=0;exitDy=0;entryX=1;entryY=0.5;entryDx=0;entryDy=0;" edge="1" parent="1" source="Zk--edvFrF1T-wHGm7JD-42">
          <mxGeometry relative="1" as="geometry">
            <mxPoint x="825" y="685" as="sourcePoint" />
            <mxPoint x="705" y="705" as="targetPoint" />
          </mxGeometry>
        </mxCell>
        <mxCell id="Zk--edvFrF1T-wHGm7JD-60" value="" style="endArrow=none;html=1;rounded=0;exitX=1;exitY=0;exitDx=0;exitDy=0;" edge="1" parent="1" source="Zk--edvFrF1T-wHGm7JD-4">
          <mxGeometry width="50" height="50" relative="1" as="geometry">
            <mxPoint x="530" y="545" as="sourcePoint" />
            <mxPoint x="1352" y="255" as="targetPoint" />
          </mxGeometry>
        </mxCell>
        <mxCell id="Zk--edvFrF1T-wHGm7JD-61" value="" style="endArrow=none;html=1;rounded=0;" edge="1" parent="1">
          <mxGeometry width="50" height="50" relative="1" as="geometry">
            <mxPoint x="1350" y="255" as="sourcePoint" />
            <mxPoint x="1350" y="805" as="targetPoint" />
          </mxGeometry>
        </mxCell>
        <mxCell id="Zk--edvFrF1T-wHGm7JD-62" value="" style="endArrow=none;html=1;rounded=0;" edge="1" parent="1">
          <mxGeometry width="50" height="50" relative="1" as="geometry">
            <mxPoint x="650" y="805" as="sourcePoint" />
            <mxPoint x="1352" y="805" as="targetPoint" />
          </mxGeometry>
        </mxCell>
        <mxCell id="Zk--edvFrF1T-wHGm7JD-63" value="" style="endArrow=none;html=1;rounded=0;entryX=0.5;entryY=1;entryDx=0;entryDy=0;" edge="1" parent="1" target="Zk--edvFrF1T-wHGm7JD-54">
          <mxGeometry width="50" height="50" relative="1" as="geometry">
            <mxPoint x="650" y="805" as="sourcePoint" />
            <mxPoint x="1080" y="555" as="targetPoint" />
          </mxGeometry>
        </mxCell>
        <mxCell id="Zk--edvFrF1T-wHGm7JD-64" value="(1,N)" style="text;html=1;align=center;verticalAlign=middle;resizable=0;points=[];autosize=1;strokeColor=none;fillColor=none;" vertex="1" parent="1">
          <mxGeometry x="670" y="775" width="50" height="30" as="geometry" />
        </mxCell>
        <mxCell id="Zk--edvFrF1T-wHGm7JD-65" style="edgeStyle=orthogonalEdgeStyle;rounded=0;orthogonalLoop=1;jettySize=auto;html=1;exitX=0.5;exitY=0;exitDx=0;exitDy=0;curved=0;" edge="1" parent="1" source="Zk--edvFrF1T-wHGm7JD-66" target="Zk--edvFrF1T-wHGm7JD-1">
          <mxGeometry relative="1" as="geometry" />
        </mxCell>
        <mxCell id="Zk--edvFrF1T-wHGm7JD-66" value="Metodo de pago" style="ellipse;shape=doubleEllipse;margin=3;whiteSpace=wrap;html=1;align=center;" vertex="1" parent="1">
          <mxGeometry x="-100" y="395" width="100" height="40" as="geometry" />
        </mxCell>
        <mxCell id="Zk--edvFrF1T-wHGm7JD-67" value="Nro" style="ellipse;whiteSpace=wrap;html=1;align=center;fontStyle=4;" vertex="1" parent="1">
          <mxGeometry x="1105" y="525" width="60" height="30" as="geometry" />
        </mxCell>
        <mxCell id="Zk--edvFrF1T-wHGm7JD-68" value="Cant" style="ellipse;whiteSpace=wrap;html=1;align=center;" vertex="1" parent="1">
          <mxGeometry x="1170" y="525" width="60" height="30" as="geometry" />
        </mxCell>
        <mxCell id="Zk--edvFrF1T-wHGm7JD-69" style="edgeStyle=orthogonalEdgeStyle;rounded=0;orthogonalLoop=1;jettySize=auto;html=1;exitX=0.5;exitY=1;exitDx=0;exitDy=0;entryX=0.308;entryY=0;entryDx=0;entryDy=0;entryPerimeter=0;" edge="1" parent="1" source="Zk--edvFrF1T-wHGm7JD-67" target="Zk--edvFrF1T-wHGm7JD-40">
          <mxGeometry relative="1" as="geometry" />
        </mxCell>
        <mxCell id="Zk--edvFrF1T-wHGm7JD-70" style="edgeStyle=orthogonalEdgeStyle;rounded=0;orthogonalLoop=1;jettySize=auto;html=1;exitX=0.5;exitY=1;exitDx=0;exitDy=0;entryX=0.833;entryY=0.067;entryDx=0;entryDy=0;entryPerimeter=0;" edge="1" parent="1" source="Zk--edvFrF1T-wHGm7JD-68" target="Zk--edvFrF1T-wHGm7JD-40">
          <mxGeometry relative="1" as="geometry" />
        </mxCell>
        <mxCell id="Zk--edvFrF1T-wHGm7JD-71" value="Edad" style="ellipse;whiteSpace=wrap;html=1;align=center;dashed=1;" vertex="1" parent="1">
          <mxGeometry x="5" y="395" width="50" height="20" as="geometry" />
        </mxCell>
        <mxCell id="Zk--edvFrF1T-wHGm7JD-72" style="edgeStyle=orthogonalEdgeStyle;rounded=0;orthogonalLoop=1;jettySize=auto;html=1;exitX=0.5;exitY=0;exitDx=0;exitDy=0;entryX=0.707;entryY=1.053;entryDx=0;entryDy=0;entryPerimeter=0;" edge="1" parent="1" source="Zk--edvFrF1T-wHGm7JD-71" target="Zk--edvFrF1T-wHGm7JD-1">
          <mxGeometry relative="1" as="geometry" />
        </mxCell>
        <mxCell id="Zk--edvFrF1T-wHGm7JD-73" style="edgeStyle=orthogonalEdgeStyle;rounded=0;orthogonalLoop=1;jettySize=auto;html=1;exitX=1;exitY=0;exitDx=0;exitDy=0;entryX=0;entryY=0.75;entryDx=0;entryDy=0;" edge="1" parent="1" source="Zk--edvFrF1T-wHGm7JD-74" target="Zk--edvFrF1T-wHGm7JD-1">
          <mxGeometry relative="1" as="geometry" />
        </mxCell>
        <mxCell id="Zk--edvFrF1T-wHGm7JD-74" value="DNI" style="ellipse;whiteSpace=wrap;html=1;align=center;fontStyle=4;" vertex="1" parent="1">
          <mxGeometry x="-180" y="330" width="40" height="25" as="geometry" />
        </mxCell>
        <mxCell id="Zk--edvFrF1T-wHGm7JD-75" value="Nombre completo" style="ellipse;whiteSpace=wrap;html=1;align=center;" vertex="1" parent="1">
          <mxGeometry x="-200" y="385" width="80" height="35" as="geometry" />
        </mxCell>
        <mxCell id="Zk--edvFrF1T-wHGm7JD-76" style="edgeStyle=orthogonalEdgeStyle;rounded=0;orthogonalLoop=1;jettySize=auto;html=1;exitX=1;exitY=0;exitDx=0;exitDy=0;entryX=0.106;entryY=0.99;entryDx=0;entryDy=0;entryPerimeter=0;" edge="1" parent="1" source="Zk--edvFrF1T-wHGm7JD-75" target="Zk--edvFrF1T-wHGm7JD-1">
          <mxGeometry relative="1" as="geometry" />
        </mxCell>
        <mxCell id="Zk--edvFrF1T-wHGm7JD-77" value="Nombre" style="ellipse;whiteSpace=wrap;html=1;align=center;" vertex="1" parent="1">
          <mxGeometry x="-200" y="450" width="60" height="30" as="geometry" />
        </mxCell>
        <mxCell id="Zk--edvFrF1T-wHGm7JD-78" value="Apellido" style="ellipse;whiteSpace=wrap;html=1;align=center;" vertex="1" parent="1">
          <mxGeometry x="-270" y="420" width="60" height="30" as="geometry" />
        </mxCell>
        <mxCell id="Zk--edvFrF1T-wHGm7JD-79" style="edgeStyle=orthogonalEdgeStyle;rounded=0;orthogonalLoop=1;jettySize=auto;html=1;exitX=0.5;exitY=0;exitDx=0;exitDy=0;entryX=0.448;entryY=0.978;entryDx=0;entryDy=0;entryPerimeter=0;" edge="1" parent="1" source="Zk--edvFrF1T-wHGm7JD-77" target="Zk--edvFrF1T-wHGm7JD-75">
          <mxGeometry relative="1" as="geometry" />
        </mxCell>
        <mxCell id="Zk--edvFrF1T-wHGm7JD-80" style="edgeStyle=orthogonalEdgeStyle;rounded=0;orthogonalLoop=1;jettySize=auto;html=1;exitX=0.5;exitY=0;exitDx=0;exitDy=0;entryX=0.031;entryY=0.251;entryDx=0;entryDy=0;entryPerimeter=0;" edge="1" parent="1" source="Zk--edvFrF1T-wHGm7JD-78" target="Zk--edvFrF1T-wHGm7JD-75">
          <mxGeometry relative="1" as="geometry" />
        </mxCell>
        <mxCell id="Zk--edvFrF1T-wHGm7JD-81" style="edgeStyle=orthogonalEdgeStyle;rounded=0;orthogonalLoop=1;jettySize=auto;html=1;exitX=1;exitY=0.5;exitDx=0;exitDy=0;entryX=0;entryY=0;entryDx=0;entryDy=0;" edge="1" parent="1" source="Zk--edvFrF1T-wHGm7JD-82" target="Zk--edvFrF1T-wHGm7JD-1">
          <mxGeometry relative="1" as="geometry" />
        </mxCell>
        <mxCell id="Zk--edvFrF1T-wHGm7JD-82" value="Fecha nacimiento" style="ellipse;whiteSpace=wrap;html=1;align=center;" vertex="1" parent="1">
          <mxGeometry x="-230" y="275" width="120" height="50" as="geometry" />
        </mxCell>
        <mxCell id="Zk--edvFrF1T-wHGm7JD-83" style="edgeStyle=orthogonalEdgeStyle;rounded=0;orthogonalLoop=1;jettySize=auto;html=1;exitX=0.5;exitY=1;exitDx=0;exitDy=0;" edge="1" parent="1" source="Zk--edvFrF1T-wHGm7JD-82" target="Zk--edvFrF1T-wHGm7JD-82">
          <mxGeometry relative="1" as="geometry" />
        </mxCell>
        <mxCell id="Zk--edvFrF1T-wHGm7JD-84" style="edgeStyle=orthogonalEdgeStyle;rounded=0;orthogonalLoop=1;jettySize=auto;html=1;exitX=0;exitY=0.5;exitDx=0;exitDy=0;entryX=1;entryY=0.5;entryDx=0;entryDy=0;" edge="1" parent="1" source="Zk--edvFrF1T-wHGm7JD-85" target="Zk--edvFrF1T-wHGm7JD-5">
          <mxGeometry relative="1" as="geometry" />
        </mxCell>
        <mxCell id="Zk--edvFrF1T-wHGm7JD-85" value="IDAlquiler" style="ellipse;whiteSpace=wrap;html=1;align=center;fontStyle=4;" vertex="1" parent="1">
          <mxGeometry x="920" y="300" width="90" height="35" as="geometry" />
        </mxCell>
        <mxCell id="Zk--edvFrF1T-wHGm7JD-86" value="Importe total" style="ellipse;whiteSpace=wrap;html=1;align=center;dashed=1;" vertex="1" parent="1">
          <mxGeometry x="750" y="395" width="100" height="40" as="geometry" />
        </mxCell>
        <mxCell id="Zk--edvFrF1T-wHGm7JD-87" style="edgeStyle=orthogonalEdgeStyle;rounded=0;orthogonalLoop=1;jettySize=auto;html=1;exitX=0.5;exitY=0;exitDx=0;exitDy=0;entryX=0.331;entryY=1.027;entryDx=0;entryDy=0;entryPerimeter=0;" edge="1" parent="1" source="Zk--edvFrF1T-wHGm7JD-86" target="Zk--edvFrF1T-wHGm7JD-5">
          <mxGeometry relative="1" as="geometry" />
        </mxCell>
        <mxCell id="Zk--edvFrF1T-wHGm7JD-88" style="edgeStyle=orthogonalEdgeStyle;rounded=0;orthogonalLoop=1;jettySize=auto;html=1;exitX=0;exitY=0;exitDx=0;exitDy=0;entryX=0.75;entryY=1;entryDx=0;entryDy=0;" edge="1" parent="1" source="Zk--edvFrF1T-wHGm7JD-89" target="Zk--edvFrF1T-wHGm7JD-5">
          <mxGeometry relative="1" as="geometry" />
        </mxCell>
        <mxCell id="Zk--edvFrF1T-wHGm7JD-89" value="Ip" style="ellipse;whiteSpace=wrap;html=1;align=center;" vertex="1" parent="1">
          <mxGeometry x="860" y="375" width="40" height="20" as="geometry" />
        </mxCell>
        <mxCell id="Zk--edvFrF1T-wHGm7JD-90" value="Fecha" style="ellipse;whiteSpace=wrap;html=1;align=center;" vertex="1" parent="1">
          <mxGeometry x="910" y="345" width="50" height="30" as="geometry" />
        </mxCell>
        <mxCell id="Zk--edvFrF1T-wHGm7JD-91" style="edgeStyle=orthogonalEdgeStyle;rounded=0;orthogonalLoop=1;jettySize=auto;html=1;exitX=0;exitY=0.5;exitDx=0;exitDy=0;entryX=0.942;entryY=0.979;entryDx=0;entryDy=0;entryPerimeter=0;" edge="1" parent="1" source="Zk--edvFrF1T-wHGm7JD-90" target="Zk--edvFrF1T-wHGm7JD-5">
          <mxGeometry relative="1" as="geometry" />
        </mxCell>
        <mxCell id="Zk--edvFrF1T-wHGm7JD-92" style="edgeStyle=orthogonalEdgeStyle;rounded=0;orthogonalLoop=1;jettySize=auto;html=1;exitX=1;exitY=0.5;exitDx=0;exitDy=0;entryX=0;entryY=0.25;entryDx=0;entryDy=0;" edge="1" parent="1" source="Zk--edvFrF1T-wHGm7JD-93" target="Zk--edvFrF1T-wHGm7JD-6">
          <mxGeometry relative="1" as="geometry" />
        </mxCell>
        <mxCell id="Zk--edvFrF1T-wHGm7JD-93" value="IDMuseo" style="ellipse;whiteSpace=wrap;html=1;align=center;fontStyle=4;" vertex="1" parent="1">
          <mxGeometry x="100" y="445" width="70" height="35.5" as="geometry" />
        </mxCell>
        <mxCell id="Zk--edvFrF1T-wHGm7JD-94" style="edgeStyle=orthogonalEdgeStyle;rounded=0;orthogonalLoop=1;jettySize=auto;html=1;exitX=1;exitY=0.5;exitDx=0;exitDy=0;entryX=0;entryY=0.75;entryDx=0;entryDy=0;" edge="1" parent="1" target="Zk--edvFrF1T-wHGm7JD-6">
          <mxGeometry relative="1" as="geometry">
            <mxPoint x="160" y="505.0000000000001" as="sourcePoint" />
          </mxGeometry>
        </mxCell>
        <mxCell id="Zk--edvFrF1T-wHGm7JD-95" style="edgeStyle=orthogonalEdgeStyle;rounded=0;orthogonalLoop=1;jettySize=auto;html=1;exitX=1;exitY=0.5;exitDx=0;exitDy=0;entryX=0;entryY=0.25;entryDx=0;entryDy=0;" edge="1" parent="1" source="Zk--edvFrF1T-wHGm7JD-96" target="Zk--edvFrF1T-wHGm7JD-23">
          <mxGeometry relative="1" as="geometry" />
        </mxCell>
        <mxCell id="Zk--edvFrF1T-wHGm7JD-96" value="IDMaterial" style="ellipse;whiteSpace=wrap;html=1;align=center;fontStyle=4;" vertex="1" parent="1">
          <mxGeometry x="-230" y="619.5" width="70" height="35.5" as="geometry" />
        </mxCell>
        <mxCell id="Zk--edvFrF1T-wHGm7JD-97" style="edgeStyle=orthogonalEdgeStyle;rounded=0;orthogonalLoop=1;jettySize=auto;html=1;exitX=1;exitY=0.5;exitDx=0;exitDy=0;entryX=0.25;entryY=0;entryDx=0;entryDy=0;" edge="1" parent="1" source="Zk--edvFrF1T-wHGm7JD-98" target="Zk--edvFrF1T-wHGm7JD-23">
          <mxGeometry relative="1" as="geometry" />
        </mxCell>
        <mxCell id="Zk--edvFrF1T-wHGm7JD-98" value="Precio" style="ellipse;whiteSpace=wrap;html=1;align=center;" vertex="1" parent="1">
          <mxGeometry x="-150" y="579.5" width="50" height="25.5" as="geometry" />
        </mxCell>
        <mxCell id="Zk--edvFrF1T-wHGm7JD-99" value="Recomienda" style="shape=rhombus;perimeter=rhombusPerimeter;whiteSpace=wrap;html=1;align=center;" vertex="1" parent="1">
          <mxGeometry x="-100" y="785" width="120" height="60" as="geometry" />
        </mxCell>
        <mxCell id="Zk--edvFrF1T-wHGm7JD-100" value="" style="endArrow=none;html=1;rounded=0;entryX=1;entryY=0.5;entryDx=0;entryDy=0;exitX=1;exitY=1;exitDx=0;exitDy=0;exitPerimeter=0;" edge="1" parent="1" source="Zk--edvFrF1T-wHGm7JD-23" target="Zk--edvFrF1T-wHGm7JD-99">
          <mxGeometry relative="1" as="geometry">
            <mxPoint x="10" y="715" as="sourcePoint" />
            <mxPoint x="110" y="675" as="targetPoint" />
          </mxGeometry>
        </mxCell>
        <mxCell id="Zk--edvFrF1T-wHGm7JD-101" value="" style="endArrow=none;html=1;rounded=0;entryX=0;entryY=0.5;entryDx=0;entryDy=0;exitX=0;exitY=1;exitDx=0;exitDy=0;" edge="1" parent="1" source="Zk--edvFrF1T-wHGm7JD-23" target="Zk--edvFrF1T-wHGm7JD-99">
          <mxGeometry relative="1" as="geometry">
            <mxPoint x="-110" y="695" as="sourcePoint" />
            <mxPoint x="-110" y="815" as="targetPoint" />
          </mxGeometry>
        </mxCell>
        <mxCell id="Zk--edvFrF1T-wHGm7JD-102" value="(0,N)" style="text;html=1;align=center;verticalAlign=middle;resizable=0;points=[];autosize=1;strokeColor=none;fillColor=none;" vertex="1" parent="1">
          <mxGeometry x="-160" y="755" width="50" height="30" as="geometry" />
        </mxCell>
        <mxCell id="Zk--edvFrF1T-wHGm7JD-103" value="(0,N)" style="text;html=1;align=center;verticalAlign=middle;resizable=0;points=[];autosize=1;strokeColor=none;fillColor=none;" vertex="1" parent="1">
          <mxGeometry x="15" y="755" width="50" height="30" as="geometry" />
        </mxCell>
        <mxCell id="Zk--edvFrF1T-wHGm7JD-104" value="(0,N)" style="text;html=1;align=center;verticalAlign=middle;resizable=0;points=[];autosize=1;strokeColor=none;fillColor=none;" vertex="1" parent="1">
          <mxGeometry x="460" y="420" width="50" height="30" as="geometry" />
        </mxCell>
        <mxCell id="Zk--edvFrF1T-wHGm7JD-105" value="(0,N)" style="text;html=1;align=center;verticalAlign=middle;resizable=0;points=[];autosize=1;strokeColor=none;fillColor=none;" vertex="1" parent="1">
          <mxGeometry x="420" y="335" width="50" height="30" as="geometry" />
        </mxCell>
        <mxCell id="Zk--edvFrF1T-wHGm7JD-106" value="(0,N)" style="text;html=1;align=center;verticalAlign=middle;resizable=0;points=[];autosize=1;strokeColor=none;fillColor=none;" vertex="1" parent="1">
          <mxGeometry x="420" y="255" width="50" height="30" as="geometry" />
        </mxCell>
        <mxCell id="Zk--edvFrF1T-wHGm7JD-107" value="Nombre" style="ellipse;whiteSpace=wrap;html=1;align=center;" vertex="1" parent="1">
          <mxGeometry x="100" y="485" width="65" height="30" as="geometry" />
        </mxCell>
        <mxCell id="Zk--edvFrF1T-wHGm7JD-108" value="" style="endArrow=none;html=1;rounded=0;strokeColor=#ffffff;" edge="1" parent="1">
          <mxGeometry width="50" height="50" relative="1" as="geometry">
            <mxPoint x="200" y="210" as="sourcePoint" />
            <mxPoint x="550" y="190" as="targetPoint" />
            <Array as="points" />
          </mxGeometry>
        </mxCell>
        <mxCell id="Zk--edvFrF1T-wHGm7JD-109" value="" style="endArrow=none;html=1;rounded=0;strokeColor=#ffffff;" edge="1" parent="1">
          <mxGeometry width="50" height="50" relative="1" as="geometry">
            <mxPoint x="330" y="920" as="sourcePoint" />
            <mxPoint x="680" y="900" as="targetPoint" />
            <Array as="points" />
          </mxGeometry>
        </mxCell>
        <mxCell id="Zk--edvFrF1T-wHGm7JD-110" value="" style="endArrow=none;html=1;rounded=0;strokeColor=#ffffff;" edge="1" parent="1">
          <mxGeometry width="50" height="50" relative="1" as="geometry">
            <mxPoint x="1390" y="300" as="sourcePoint" />
            <mxPoint x="1440" y="730" as="targetPoint" />
            <Array as="points" />
          </mxGeometry>
        </mxCell>
        <mxCell id="Zk--edvFrF1T-wHGm7JD-111" value="" style="endArrow=none;html=1;rounded=0;strokeColor=#ffffff;" edge="1" parent="1">
          <mxGeometry width="50" height="50" relative="1" as="geometry">
            <mxPoint x="-340" y="270" as="sourcePoint" />
            <mxPoint x="-290" y="700" as="targetPoint" />
            <Array as="points" />
          </mxGeometry>
        </mxCell>
      </root>
    </mxGraphModel>
  </diagram>
</mxfile>
